<?xml version="1.0" encoding="UTF-8"?>
<svg id="Layer_2" data-name="Layer 2" xmlns="http://www.w3.org/2000/svg" viewBox="0 0 21.54 240.45">
  <defs>
    <style>
      .cls-1 {
        stroke-width: 0px;
      }
    </style>
  </defs>
  <g id="Layer_1-2" data-name="Layer 1">
    <g>
      <path class="cls-1" d="M5.63,10.29h-.22v13.64H0V0h7.29l3.36,12.67h.22L14.25,0h7.29v23.93h-5.41v-13.64h-.22l-3.07,13.64h-4.15l-3.07-13.64Z"/>
      <path class="cls-1" d="M4.93,43.3h12.09v5.74h-6.32v3.03h6.03v5.41h-6.03v3.97h6.46v5.77H4.93v-23.93Z"/>
      <path class="cls-1" d="M4.17,86.61h13.14v5.49l-6.89,12.7h7.15v5.74H3.99v-5.81l6.93-12.41h-6.75v-5.7Z"/>
      <path class="cls-1" d="M11.01,135.11c-1.12,0-1.59.76-1.59,2.13v9.35c0,1.48.58,2.13,1.59,2.13,1.15,0,1.7-.72,1.62-3.54h5.52c.18,7.76-3.86,9.38-7.11,9.38-2.82,0-7.36-1.12-7.36-7.87v-9.6c0-6.68,4.51-7.9,7.36-7.9,3.18,0,7.25,1.59,7.11,9.02h-5.52c.07-2.35-.47-3.1-1.62-3.1Z"/>
      <path class="cls-1" d="M7.49,173.22h6.71l5.49,23.93h-5.92l-.83-4.44h-4.51l-.83,4.44H1.86l5.63-23.93ZM10.63,180.43l-1.23,7.25h2.63l-1.19-7.25h-.22Z"/>
      <path class="cls-1" d="M5.59,216.52h5.7v18.15h5.92v5.77H5.59v-23.93Z"/>
    </g>
  </g>
</svg>