<?xml version="1.0" encoding="UTF-8"?>
<svg id="Layer_2" data-name="Layer 2" xmlns="http://www.w3.org/2000/svg" viewBox="0 0 189.47 167.48">
  <defs>
    <style>
      .cls-1 {
        stroke-width: 0px;
      }
    </style>
  </defs>
  <g id="Layer_1-2" data-name="Layer 1">
    <g>
      <path class="cls-1" d="M70.38,167.4c-.21-.04-.4-.11-.54-.29,0-.13-.05-.2-.19-.21-.37-.49-.48-1.05-.42-1.64.02-.15,0-.24-.11-.32-.17-.11-.17-.28-.14-.46h0c.13-.02.15-.18.12-.21-.23-.27-.05-.51.04-.75.17-.46,0-.9-.3-1.29-.36-.45-.62-1.01-.63-1.6,0-.48-.08-.96.05-1.46.1-.38-.05-.86-.07-1.29-.04-.63-.08-1.3-.37-1.9-.06-.13-.12-.25-.21-.37-.14-.17-.21-.36-.17-.58.16-1.03-.28-2.05-.02-3.08.04-.15-.07-.27-.15-.39-.1-.17-.23-.35-.19-.53.1-.52-.05-.95-.37-1.34-.18-.21-.15-.46-.1-.69.1-.43,0-.82-.17-1.2-.09-.2-.17-.42-.08-.6.2-.39.05-.72-.08-1.05-.06-.16-.1-.31-.08-.47.03-.3-.04-.56-.23-.8-.26-.33-.27-.7-.2-1.13.16-1.03.32-2.07-.32-3.03-.24-.35-.13-.83-.19-1.24-.09-.68-.13-1.39.12-2.07.05-.14.12-.3.04-.42-.32-.51-.11-1.11-.29-1.64-.03-.09-.03-.19-.1-.26-.68-.6-.43-1.31-.19-1.97.11-.3-.06-.55.02-.86.14-.54.05-1.14.09-1.72.03-.39-.12-.79-.11-1.21.02-.38-.17-.78.06-1.16.01-.02,0-.07,0-.09-.39-.99-.42-2.06-.72-3.07-.05-.16-.28-.24-.2-.46.36-.29.32-.62.1-.96-.1-.16-.08-.33-.04-.51.04-.12.2-.21.06-.36-.06-.58,0-1.15.41-1.6.35-.38.5-.75.17-1.23-.24-.35-.14-.77-.14-1.16,0-.3-.11-.51-.28-.76-.44-.65-.62-1.43-.38-2.19.24-.77.14-1.55.21-2.32.02-.2-.04-.42.04-.61.06-.14.01-.21-.09-.28-.11-.07-.21-.08-.29.03-.4.54-.92,1.03-1.22,1.59-.24.45-.78.78-.77,1.39,0,.15-.12.35-.1.54.03.27-.07.5-.25.64-.47.36-.81.77-.93,1.36-.03.16-.18.29-.27.44-.2.34-.48.62-.51,1.05-.02.3-.25.56-.53.62-.68.15-.96.81-1.5,1.12-.03.01-.04.09-.03.13.08.39-.18.59-.46.73-.47.22-.71.57-.83,1.06-.07.32-.19.63-.51.82-.07.04-.15.15-.15.23,0,.61-.37,1.11-.44,1.69-.03.3-.19.53-.48.67-.37.17-.53.45-.68.85-.23.58-.66,1.08-1.25,1.39-.35.19-.68.38-.67.85,0,.03-.02.07-.04.09-.48.35-.49.96-.77,1.42-.55.91-.76,1.93-1.1,2.92-.02.06-.03.14-.07.18-.42.47-.85.95-1.28,1.41-.04.04-.15.05-.16.09-.21.64-.62,1.09-1.21,1.41-.83.45-1.05,1.52-1.93,1.93-.07.03-.14.11-.15.18-.15.63-.65,1-1.09,1.4-.31.28-.4.68-.56,1.03-.21.46-.48.87-.77,1.28-.29.41-.63.78-.97,1.15-.29.32-.51.64-.67,1.06-.23.55-.28,1.25-1.01,1.54-.2.08-.56.35-.36.8.05.11-.15.38-.38.47-.88.33-1.15,1.13-1.39,1.91-.12.39-.28.7-.63.9-.29.16-.5.35-.53.73-.03.42-.47.65-.72.91-.39.4-.66.91-1.12,1.23-.33.23-.47.57-.58.91-.13.39-.32.7-.73.82-.12.04-.22.09-.22.22,0,.25-.21.38-.32.56-.22.34-.62.54-.6,1.07.01.28-.32.55-.5.8-.34.48-.56,1.06-1.05,1.44-.27.21-.32.54-.39.84-.05.21-.13.42-.3.53-.41.27-.73.61-.97,1.04-.18.34-.32.71-.56,1.03-.17.21-.34.39-.6.46-.51.12-.89.5-1.36.71-.22.1-.45.55-.5-.13-.03-.43-.25.13-.38-.01.03-.52.03-.51-.36-1.06-.25-.34-.29-.74-.09-1.09.41-.73.48-1.52.57-2.32,0-.03,0-.07.02-.09.5-.66.32-1.57.79-2.24.13-.19.24-.4.24-.62,0-.58.11-1.09.51-1.55.22-.25.13-.58.01-.86-.1-.25-.14-.51.02-.73.57-.78.62-1.73.85-2.63.02-.08,0-.19-.03-.28-.12-.41-.02-.75.32-1.02.29-.24.46-.51.31-.92-.1-.29-.04-.59.02-.89.17-.92.31-1.84.43-2.76.05-.39.29-.63.5-.89.34-.42.48-.91.66-1.41.25-.7.27-1.47.67-2.13.04-.07.12-.15.1-.21-.22-.64.18-1.18.27-1.77.04-.24.03-.48-.02-.71-.18-.86.39-1.44.77-2.09.14-.25.21-.47.25-.74.09-.58.07-1.19.49-1.69.09-.11.11-.29.15-.45.03-.11,0-.26.06-.32.49-.4.44-1.08.82-1.54.04-.05.12-.13.1-.15-.29-.55.21-.99.2-1.5,0-.17.06-.31.16-.38.47-.37.5-.9.63-1.42.08-.34.3-.65.3-1.04,0-.07.04-.17.01-.28-.11-.38-.24-.75-.28-1.15-.05-.45-.07-.87.4-1.13.09-.05.2-.18.19-.26-.06-.61.47-.98.57-1.53.08-.45.31-.86.26-1.34-.02-.2.05-.43.24-.55.13-.08.13-.14.07-.26-.02-.04,0-.17.02-.17.59-.13.25-.68.45-.97.24-.35.41-.73.38-1.15-.03-.35.34-.54.31-.88-.08-.95.42-1.84.31-2.79-.03-.21.1-.38.18-.53.27-.51.45-1.04.62-1.58.01-.05.03-.1.07-.13.75-.51.49-1.31.57-2.01.06-.51.43-.82.74-1.14.82-.83,1.2-1.77.98-2.94-.12-.62-.08-1.24.47-1.69.1-.09.14-.18.11-.29-.1-.39.12-.7.19-1.05.15-.71.53-1.36.5-2.11,0-.23.11-.46.19-.68.13-.34.23-.68.17-1.05-.04-.24.09-.43.28-.58.42-.32.54-.74.53-1.26,0-.39.14-.81.47-1,.36-.22.42-.54.56-.87.36-.82.47-1.7.69-2.55.23-.86.31-1.79.28-2.71-.02-.67.04-1.35.34-1.98.18-.39-.05-.93.32-1.26.49-.45.53-1.26,1.25-1.52.1-.03.12-.13.13-.23.06-.9.46-1.7.79-2.51.09-.23.1-.49.06-.74-.13-.81.13-1.58.37-2.32.16-.48.4-.95.8-1.36.35-.35.38-.99.37-1.54.07.02.09,0,.05-.07-.02.03-.03.05-.05.08-.08,0-.17.03-.19.11-.13.56-.54.85-1.02,1.06-.68.3-1.07.9-1.45,1.48-.18.27-.42.38-.7.45-.27.07-.39.21-.37.47.02.2-.06.35-.18.47-.43.45-.87.89-1.33,1.31-.16.15-.3.27-.34.49-.08.43-.3.76-.7.97-.35.18-.57.49-.72.86-.26.65-.84,1.09-1.39,1.37-.41.21-.72.48-1.08.7-.96.6-1.58,1.47-2.3,2.29-.33.38-.59.7-.62,1.22-.02.3-.33.5-.53.71-.43.45-.44,1.1-.79,1.58-.68.92-1.57,1.63-2.42,2.39-.63.57-1.36,1.04-1.78,1.82-.19.36-.47.55-.94.51-.43-.04-.68.36-.93.65-.48.55-.99,1.06-1.54,1.54-.09.07-.17.14-.2.26-.2.68-.7,1.14-1.21,1.6-.12.11-.22.24-.29.38-.16.36-.41.65-.77.8-.63.27-.98.78-1.27,1.35-.15.29-.38.51-.69.55-.35.04-.46.27-.64.49-.48.56-.87,1.18-1.46,1.66-.56.45-1.02,1.01-1.32,1.71-.37.85-.77,1.75-1.38,2.41-.6.65-1.14,1.43-2.04,1.82-.31.14-.63.53-.84.86-.19.3-.38.52-.7.67-.21.09-.39.22-.52.46-.49.86-1.09,1.63-1.98,2.15-.23.13-.36.58-.61.83-.15.15-.29.3-.49.38-.28.1-.41.32-.56.56-.36.59-.63,1.24-1.34,1.56-.25.11-.44.41-.62.65-.71.93-1.43,1.85-2.32,2.61-.1.08-.13.18-.15.29-.1.58-.55.94-.96,1.25-.36.27-.6.57-.83.93-.3.47-.48,1.06-1.17,1.17-.2.03-.32.31-.3.55.01.22,0,.47-.15.59-.51.4-.86.96-1.36,1.37-.16.13-.33.24-.42.45-.11.26-.33.44-.62.47-.15.01-.23.09-.32.18-.41.41-.8.42-1.2.05-.22-.21-.36-.47-.58-.69-.3-.29-.19-.71-.07-1.09.34-.22.4-.58.47-.94.13-.18.02-.59.5-.43.17.06.24-.24.25-.43.04-.52.27-.95.59-1.36.24-.31.4-.68.62-.99.45-.63.71-1.38,1.22-1.97.08-.09.17-.15.05-.27-.04-.04-.16-.13.01-.14.5-.03.41-.49.47-.75.14-.55.27-1.08.66-1.52.35-.39.52-.91.94-1.25.02-.02.06-.05.05-.08-.06-.67.46-1.07.74-1.58.11-.2.39-.08.49-.31.31-.71,1.05-1.21,1.03-2.09.61-.43.55-1.15.69-1.74.21-.86.71-1.55,1.08-2.32.2-.42.57-.77.86-1.14.08-.1.26-.16.27-.26.1-.64.72-1,.83-1.62.05-.28.35-.39.52-.59.81-.97,1.24-2.19,2.1-3.12.26-.28.5-.57.54-.97,0-.05.03-.12.06-.13.44-.03.39-.56.68-.7.88-.43,1-1.38,1.51-2.06.35-.48.68-.96,1.21-1.25.09-.05.15-.11.16-.22.05-.39.31-.65.56-.91.88-.94,1.82-1.84,2.12-3.17.05-.69.43-1.21.87-1.69.33-.35.32-.84.58-1.24.2-.31.39-.66.59-.98.25-.38.36-.8.85-1.07.39-.21.63-.8.79-1.27.14-.38.37-.68.63-.94.26-.26.47-.56.71-.83.19-.23.37-.43.41-.77.03-.34.38-.58.59-.83.23-.26.41-.55.62-.82.16-.22.32-.43.55-.59.23-.16.41-.4.4-.73,0-.29.27-.49.32-.72.14-.68.61-1.13.95-1.67.35-.56.54-1.22.91-1.76.44-.65.64-1.36.85-2.09.11-.38.56-.51.71-.88.22-.53.37-1.12.95-1.41.02-.01.04-.06.04-.08-.04-.95.67-1.45,1.2-2.06.07-.08.14-.19.15-.29.03-.36.26-.58.55-.73.31-.17.51-.44.63-.76.1-.28.19-.53.45-.71.24-.16.14-.42.14-.62.02-.77.62-1.18,1.03-1.7.16-.21.25-.4.33-.65.15-.45.24-.91.59-1.31.35-.39.51-.94.82-1.38.31-.44.53-.95.96-1.31.1-.09.13-.2.15-.33.03-.2.14-.4.33-.51.88-.5,1.29-1.39,1.81-2.17.19-.28.36-.56.6-.8.34-.33.64-.68.59-1.2-.02-.16.06-.31.15-.39.54-.47.7-1.13,1.01-1.73.16-.32.17-.64.21-.97.03-.22-.02-.5.16-.64.46-.36.65-.91.94-1.37.46-.73,1.29-1.11,1.65-1.92.12-.27.35-.48.36-.8.01-.32.22-.58.45-.71.59-.33.6-.99.91-1.47.29-.45.37-1.01.5-1.55.13-.53.6-.98.7-1.58.01-.08.15-.17.25-.21.89-.35,1.04-1.13,1.11-1.94.03-.3.08-.58.28-.79.71-.76,1.18-1.69,1.8-2.52.33-.45.81-.91.83-1.57,0-.1.07-.24.15-.29.3-.19.35-.46.3-.78,0-.06-.03-.15,0-.19.4-.41.45-1.09,1.05-1.35.33-.15.45-.47.5-.77.11-.59.31-1.12.78-1.53.2-.18.27-.47.29-.69.06-.63.34-1.05.93-1.26.12-.04.26-.05.31-.19.4-1,1.03-1.89,1.44-2.89.35-.84.63-1.7,1.04-2.51.15-.29.51-.37.59-.72.19-.84.96-1.36,1.2-2.17.03-.1.1-.22.19-.27.56-.31.67-.9.9-1.42.09-.19.18-.37.33-.52.26-.27.42-.56.41-.98-.01-.51.39-.88.64-1.29.14-.23.35-.44.3-.73-.05-.27.2-.43.29-.53.41-.42.27-1.14.85-1.43.03-.02.07-.09.06-.13-.15-.81.56-1.32.71-2.06.11-.52.7-.94,1.08-1.4.06-.07.21-.14.2-.18-.11-.52.45-.79.47-1.27,0-.16.14-.32.3-.42.14-.08.26-.22.26-.39,0-.5.42-.85.48-1.32,0-.07.06-.17.12-.2.56-.33.92-.78.97-1.45.01-.14.13-.23.25-.27.59-.17.93-.7,1.42-.98.49-.28.8-.76,1.33-.98.26-.1.49-.22.78-.11.14.05.26.02.38-.09.35-.3.81-.36,1.23-.52.22-.08.5-.07.69.09.45.39.77.14,1.12-.16.32-.27.7-.34,1.06-.07.45.34.87.15,1.29-.03.39-.18.77-.41,1.23-.31.02,0,.04.01.05,0,.64-.57,1.42-.14,2.12-.3.32-.07.59.08.78.28.37.37.83.37,1.25.29.3-.06.61-.11.89-.1.46.03.86-.06,1.22-.33.2-.14.42-.18.64-.14.7.14,1.31-.22,1.95-.36.33-.07.65-.07.98-.13.36-.06.71-.05,1.05-.25.27-.16.57.01.79.2.27.22.53.2.79.02.23-.15.47-.12.72-.14.58-.06,1.15.1,1.72-.02.32-.07.64,0,.84.23.22.26.41.19.62.06.39-.24.7-.1.99.17.44.41,1.11.52,1.44.08.54-.72,1.15-.37,1.74-.27.26.05.52.14.78.11.93-.08,1.85.03,2.78.08.2.01.46.04.61-.06.57-.36,1.05-.09,1.58.09.44.15.91.14,1.35-.02.28-.1.56-.17.82.03.2.16.44.06.65.09.9.14,1.82.3,2.71.15.73-.12,1.46,0,2.17-.12.88-.14,1.73-.01,2.59,0,.1,0,.2,0,.27-.06.63-.56,1.33-.37,2.04-.23.09.02.21.06.28.02.81-.4,1.59.17,2.37.08.63-.07,1.25.06,1.89-.16,1.23-.42,2.54-.42,3.84-.42.43,0,.84-.02,1.27.02.59.05,1.14-.16,1.62-.55.65-.53,1.62-.57,2.29-.12.08.05.19.12.26.1.7-.24,1.41-.02,2.11-.1.15-.02.32,0,.47.04.63.2,1.3.17,1.94.33.34.09.78.03,1.17,0,.53-.04,1.02.03,1.45.35.17.13.31.16.47.02.23-.2.53-.18.79-.26,1.17-.35,2.29.18,3.44.14.43-.02.86.29,1.3.42.65.19,1.29.19,1.93.07.98-.18,1.94-.44,2.92-.63.42-.08.86-.09,1.29-.12.27-.02.51.08.68.3.3.39.69.48,1.15.34.19-.06.38-.03.57,0,.44.07.87.11,1.3-.14.45-.26.96.01,1.45-.04.51-.06,1,.08,1.47.31.22.11.52.07.8,0,.82-.17,1.68-.21,2.48-.45.71-.21,1.33.06,1.98.08.47.01.95.12,1.42,0,.19-.05.4-.05.57.04.56.27,1.11.16,1.68.06.91-.16,1.81-.43,2.74-.44.06,0,.15,0,.18-.03.54-.52,1.26-.34,1.9-.46.15-.03.28.04.41.11.13.07.25.18.39.16.58-.07,1.04.23,1.5.51.14.08.26.09.41.02.62-.3,1.19-.07,1.72.24.24.14.5.19.67.04.46-.38.92-.24,1.4-.11.23.06.45.07.7,0,.64-.17,1.35.28,1.54.95.02.06.03.13.06.18.76.89.77,2,.83,3.07.02.41.06.87-.2,1.25-.1.15,0,.26.06.4.21.48.38.96-.02,1.43-.12.14-.13.28-.07.45.11.31.09.6-.12.86-.29.36-.27.78-.28,1.22,0,.42-.08.8.33,1.11.19.14.2.46.08.68-.22.38-.2.8-.26,1.21-.03.2,0,.41-.16.58-.13.14-.13.32-.01.44.54.56.35,1.3.53,1.95.18.68-.04,1.38.07,2.06.06.34-.14.6-.33.87-.23.32-.48.63-.29,1.09.05.12.07.31-.01.46-.2.36-.29.73-.16,1.14.1.32-.16.54-.25.8-.19.56-.09,1.16-.24,1.72-.18.65-.07,1.35-.19,1.98-.16.81-.22,1.62-.33,2.44-.05.37.02.76-.23,1.1-.07.09.03.21.08.31.05.11.13.25.11.36-.12.73.16,1.44.12,2.17-.02.31-.17.58-.22.88-.16.9-.09,1.84-.36,2.72-.01.04-.03.1,0,.14.4.66.16,1.35.13,2.03-.03.56-.34.9-.72,1.21-.31.25-.67.15-.9-.1-.4-.42-.67-.93-.81-1.5-.18-.7-.24-1.44-.63-2.08-.05-.09-.06-.22-.06-.33,0-.19.36-.62-.26-.31-.06.03-.15-.15-.15-.26,0-.79-.62-1.45-.47-2.28.03-.17-.12-.19-.25-.23-.42-.14-.62-.48-.49-.87.3-.89.01-1.65-.42-2.38-.3-.5-.26-1.08-.45-1.6-.07-.18-.1-.36-.3-.46-.27-.14-.37-.4-.3-.69.2-.85-.06-1.62-.45-2.32-.5-.89-.34-1.85-.43-2.78-.04-.44-.24-.83-.25-1.28,0-.26-.12-.52-.06-.79.05-.26-.12-.45-.25-.64-.31-.47-.47-.94-.28-1.52.12-.36.08-.78-.05-1.13-.17-.43-.22-.9-.47-1.3-.13-.21-.1-.47-.06-.7.04-.21.13-.45-.08-.57-.2-.12-.32.15-.49.23-.28.12-.4.38-.37.67.07.63-.21,1.19-.34,1.77-.08.36-.15.71-.19,1.08-.03.32-.08.62-.24.92-.34.64-.46,1.37-.57,2.08-.05.32-.18.61-.27.9-.24.74-.16,1.54-.44,2.24-.29.72-.18,1.55-.67,2.19-.06.08-.11.15,0,.24.13.1.1.21.02.33-.42.59-.46,1.33-.74,1.98-.22.51-.3,1.12-.58,1.64-.11.21.05.46.01.71-.17,1-.59,1.94-.57,2.99.01.57-.46,1.03-.79,1.49-.15.21-.28.4-.18.69.08.24.03.49-.12.73-.2.32-.35.67-.32,1.07.02.19-.11.34-.22.47-.53.59-1.78.59-2.33,0-.48-.51-.74-1.1-.87-1.8-.2-1.07-.55-2.1-1.04-3.09-.32-.65-.44-1.37-.34-2.12.06-.47-.02-.9-.3-1.33-.25-.38-.44-.92-.38-1.36.07-.48-.13-.78-.34-1.1-.18-.28-.22-.55-.2-.86,0-.08.05-.18.02-.23-.4-.54-.19-1.14-.16-1.72,0-.2-.09-.2-.17-.27-.57-.52-.84-.85-.48-1.61.14-.3-.1-.62-.23-.89-.15-.33-.29-.64-.24-1.01.02-.17-.05-.31-.16-.43-.12-.12-.2-.28-.18-.43.1-.77-.3-1.47-.27-2.22,0-.19-.13-.28-.23-.4-.22-.27-.37-.56-.33-.92,0-.06.03-.15,0-.18-.37-.39-.31-.89-.41-1.36-.06-.31-.21-.61-.16-.92.07-.43-.22-.52-.5-.56-.29-.05-.39.21-.43.46-.04.28-.09.55-.02.85.1.43-.13.82-.29,1.18-.31.69-.28,1.42-.39,2.14-.1.64-.03,1.29-.32,1.91-.15.32-.26.66-.47.96-.11.16-.21.36-.17.58.16.92-.09,1.76-.49,2.57-.06.12-.04.25-.03.38,0,.33.04.66-.19.94-.06.07-.07.18-.08.27-.1.91-.24,1.81-.66,2.64-.16.31-.12.59,0,.92.2.57.24,1.16-.12,1.7-.12.18-.2.34-.11.58.07.19.09.41-.06.6-.25.32-.3.74-.48,1.08-.29.56-.19,1.09-.14,1.65.03.31-.21.53-.4.73-.16.17-.23.33-.18.56.08.33-.04.6-.21.89-.44.73-.88,1.45-1.44,2.11-.31.37-.62.58-1.01.83-.46.29-.95.46-1.42.72-.32.17-.62.26-1,.17-.42-.1-.72.19-.94.52-.27.41-.55.6-1.1.56-.48-.03-.87.38-1.14.8-.12.18-.27.31-.45.3-.31-.01-.53.17-.79.24-.67.18-1.15.77-1.92.78-.36,0-.73.41-1.09.64-.15.1-.28.19-.47.2-.52.02-.97.23-1.38.54-.16.12-.32.26-.51.23-.31-.05-.59.02-.81.19-.83.61-1.92.5-2.77,1.06-.31.2-.62.39-1.04.43-.26.03-.5.4-.72.64-.29.31-.62.56-1.07.57-.17,0-.23.16-.34.23-.58.36-1.08.85-1.78,1.02-.31.07-.59.01-.88-.07-.08.28-.17.59-.41.77-.53.4-1.07.83-1.81.61-.26-.07-.41,0-.5.28-.11.33-.39.43-.71.56-.73.31-1.62.26-2.16,1.01-.18.25-.57.16-.85.26-.43.15-.84.33-1.3.17-.16-.05-.2.06-.22.17-.08.38-.32.56-.7.63-.17.03-.33.11-.43.29-.04.07-.09.15-.15.18-.75.3-1.34,1.03-2.26.88-.15-.02-.28.01-.37.16-.21.34-.52.56-.93.61-.1.01-.21.06-.17.18.04.11.17.04.26.04h0c-.03.1-.35.28.07.29.38,0,.75.09,1.11-.13.35-.2.72.05,1.08.07.88.04,1.75,0,2.63.15.65.11,1.37.26,2.05-.02.17-.07.35-.05.52,0,.35.11.72.04,1.06.08.6.06,1.22-.06,1.79.13.96.33,1.93.54,2.95.58.44.02.85.22,1.3.23.85.01,1.76.3,2.51.06.7-.22,1.11.11,1.66.21.46.09.94.3,1.43.09.06-.02.14-.04.19-.02.65.24,1.27-.13,1.91-.09.46.03.84.27,1.24.45.38.18.72.34,1.09-.03.14-.14.36-.19.54-.09.55.29,1.1.08,1.64.03.6-.05,1.17-.22,1.67.36.15.17.56.34.93.17.18-.08.4-.1.61-.03.19.06.36.08.55-.08.21-.18.51-.1.73.03.57.36,1.23.14,1.84.31.35.1.75-.08,1.13.06.08.03.21.01.27-.03.69-.52,1.35-.34,2.04.03.35.19.74.28,1.01.6.1.12.29.1.41.04.34-.18.68-.11,1.02-.05.23.04.45-.04.63-.17.35-.25.7-.22,1.04-.03.38.21.75.22,1.18.22.47,0,.98.16,1.39-.07.54-.3,1.1-.38,1.69-.42.55-.04,1.05.12,1.46.45.2.16.34.26.6.26.62,0,1.24.07,1.83-.21.1-.05.22-.07.33-.01.56.31,1.21.28,1.81.52.32.13.75,0,1.12-.05,1.17-.18,2.07.75,1.84,1.92-.08.38-.47.71-.9.74-.27.02-.55.05-.82,0-.76-.12-1.4.16-2.02.56-.18.12-.35.2-.61.1-.21-.08-.52-.09-.78.13-.31.27-.79.11-1.16.26-.6.25-1.2.51-1.79.79-.25.13-.48.23-.77.15-.14-.04-.28-.01-.42.06-.75.43-1.63.61-2.23,1.31-.26.3-1.46.35-1.81.09-.24-.18-.43-.16-.66-.05-.35.18-.7.33-1.09.13-.04-.02-.12-.04-.13-.03-.42.53-1.16.23-1.67.69-.29.26-.93.34-1.37.2-.71-.23-1.19.22-1.72.46-.45.21-.78.64-1.4.44-.15-.05-.6.05-.88.21-.44.26-.92.22-1.4.12-.32-.07-.57.05-.85.19-.61.3-1.09.81-1.88.84-.63.02-1.28.18-1.92.28-.26.04-.49.32-.73.51-.25.2-.53.26-.85.22-.41-.05-.78.19-1.18.28-.63.14-1.23.34-1.87.07-.24-.1-.4.05-.54.21-.56.65-1.29.71-2.08.67-.64-.04-1.31-.04-1.91.17-.37.13-.73.33-1.11.47-.14.05-.29.12-.41.06-.6-.3-1.17-.18-1.79,0-.86.26-1.78.34-2.64.61-1.38.43-2.79.74-4.17,1.15-.51.15-1.03.32-1.54.52.46.14.91.28,1.4.14.13-.04.31.06.45.14.3.17.58.33.95.21.09-.03.26,0,.32.07.4.46.91.46,1.44.37.12-.02.27-.03.38.01,1,.37,2.06.48,3.11.63.88.13,1.76.37,2.66.12.15-.04.28.05.41.12.62.32,1.26.29,1.9.11.31-.09.58-.08.87.09.39.24.86.19,1.29.28.62.13,1.27.11,1.89.28.08.02.17.03.24,0,1.15-.42,2.25-.07,3.36.22.22.06.44.06.66-.02.32-.11.6-.08.91.09.62.35,1.32.52,1.95.87.24.14.54.09.8,0,.2-.07.42-.08.56.03.35.29.75.17,1.13.25.72.15,1.44.16,2.16.24.21.02.44.03.64-.03.72-.22,1.45-.16,2.18-.15.27,0,.54.07.8-.06.16-.08.37-.06.52.02.65.36,1.37.31,2.06.43.1.02.25,0,.32-.06.44-.34.86-.18,1.31-.03,1.05.34,2.11.65,3.24.46.52-.08.91.36,1.42.35.72-.03,1.45.27,2.15-.09.15-.08.36-.08.52,0,.41.2.77.05,1.14-.1.09-.04.19-.12.26-.1.77.23,1.49-.43,2.26-.11.53.22,1.09.11,1.64.16.28.03.53.11.76.25.21.12.36.25.65.11.24-.11.51.11.69.33.16.21.33.24.53.07.02-.02.05-.04.08-.05.16-.07.37-.2.5-.08.57.53,1.49-.2,1.97.58.16.26.39.31.66.25.32-.06.62-.02.84.22.31.35.65.34.99.13.59-.34,1.12-.11,1.72,0,.91.17,1.85.64,2.82.2.25-.11.48-.08.69.05.3.18.6.19.93.11.65-.16,1.23.05,1.8.33.28.14.36.45.52.68.66.96,1.15,1.98.72,3.2-.02.07-.02.16,0,.23.25.61.11,1.17-.14,1.76-.13.31-.19.76-.07,1.06.21.5.01.91-.08,1.34-.04.21-.07.41,0,.61.07.24.04.48-.04.7-.4,1.13-.17,2.18.43,3.18.14.23.21.5.07.73-.31.52-.17,1.03,0,1.52.14.46.1.84-.26,1.18-.05.04-.11.1-.11.15.02.77-.23,1.55.04,2.32.05.14.25.35-.07.45,0-.01-.01-.03-.02-.04,0,0-.02,0-.03,0,.02.01.04.02.05.03-.16.73.44,1.47-.02,2.2-.02.03-.03.07-.02.09.27.75.06,1.58.32,2.31.18.5.21.96.14,1.45-.02.16-.1.31-.04.47.18.49.37.94.15,1.51-.1.26.27.65.15,1-.29.86-.3,1.76-.49,2.63-.04.18-.09.32.05.48.09.09.11.28.02.36-.36.36-.14.72-.03,1.07.18.57.24,1.13.21,1.74-.02.47.01.97.05,1.46.02.3-.38.47-.19.78.14.22.22.39.12.48-.18.16-.12.34-.12.53,0,.29,0,.57.28.76.12.08.19.22.19.38-.02.93.26,1.83.32,2.76.02.34-.21.6-.27.93-.08.48-.17.98-.05,1.42.24.86.03,1.72.13,2.57.04.4.22.78.14,1.21-.13.7-.12,1.42-.27,2.12-.08.39.16.75.34,1.07.44.81.54,1.7.42,2.56-.09.64-.3,1.29-.48,1.92-.02.08-.1.2-.08.22.43.42.16,1.05.44,1.51.08.13.15.25.15.4-.03,1.07.23,2.13.21,3.2,0,.49.1.98.06,1.48-.02.25.03.51-.09.75-.08.15-.07.34,0,.47.37.79.13,1.63.17,2.44.03.49.4.94.24,1.4-.18.53.15,1.09-.18,1.6-.12.18-.04.41.03.61.17.55.4,1.16.21,1.69-.21.6.19,1.17-.1,1.79-.13.29.11.87.16,1.33.06.55.06,1.08-.2,1.57-.1.19-.11.33.08.44.28.17.33.46.35.75.05.55.16,1.12.11,1.66-.06.62.04,1.31-.56,1.8-.45.36-.9.26-1.36.12-.41-.13-.55-.43-.56-.85,0-.23-.1-.46-.19-.68-.17-.44-.15-.9-.22-1.35-.05-.34-.2-.66-.52-.88-.15-.1-.21-.28-.21-.46,0-.48-.26-.9-.28-1.39-.02-.58-.52-.87-.93-1.17-.33-.24-.6-.93-.45-1.32.24-.6.13-.73-.47-1.02-.86-.41-1.38-1.1-1.42-2.1-.03-.74-.1-1.47-.22-2.2,0-.06.03-.12.05-.18.18-.57.33-.76-.67-.86.07-.07.22-.05.2-.21-.03-.23-.17-.03-.24-.07-.39-.25-.44-.68-.53-1.07-.03-.14,0-.28-.15-.37-.05-.03-.12-.04-.09-.13.14-.41.14-.47-.25-.74-.27-.18-.33-.43-.41-.71-.24-.8-.56-1.58-.82-2.37-.14-.43-.38-.85-.35-1.33.01-.22-.17-.25-.31-.29-.43-.14-.56-.47-.73-.86-.25-.56-.4-1.16-.68-1.72-.23-.47-.69-.91-.56-1.56.07-.34-.19-.67-.3-1-.34-.98-.57-2-.79-3-.21-.96-.96-1.47-1.37-2.24-.43-.83-.91-1.63-1.16-2.53-.01-.04-.02-.1-.06-.13-.54-.36-.53-.86-.43-1.43.07-.42-.4-.7-.42-1.15-.03-.95-.44-1.77-.87-2.6-.41-.79-.53-1.7-.89-2.52-.3-.69-.49-1.45-1.05-2.02-.11-.11-.12-.26-.14-.4-.09-.72-.47-1.15-1.17-1.32-.12-.03-.2-.03-.27.11-.29.62-.63,1.15-.53,1.95.09.73-.21,1.53-.31,2.31-.07.53-.22,1.02.13,1.52.13.19.11.46,0,.69-.45.95-.68,1.95-.62,3.01.02.32-.14.57-.22.86-.16.61-.58,1.2-.22,1.88.06.12.19.35-.13.38-.11.01-.11.08-.08.17.13.39.18.78-.05,1.15-.14.23-.12.47,0,.69.23.41.14.77-.15,1.1-.11.12-.26.25-.19.41.18.43.09.81-.01,1.25-.16.72-.57,1.33-.71,2.06-.12.64-.26,1.27-.13,1.92.14.66.13,1.32-.2,1.91-.15.27-.07.52-.13.78-.12.45-.07.95-.48,1.3-.07.06-.02.28,0,.42.05.44.14.86-.21,1.26-.18.21.04.55-.06.84-.16.5-.37,1.01-.21,1.57.05.17-.02.35-.1.51-.18.35-.26.72-.11,1.11.09.23-.02.46-.06.69-.07.48-.31.95-.13,1.47.06.15.1.42.02.5-.49.51-.28,1.14-.35,1.72-.02.16-.07.3-.12.46-.08.23-.36.47.02.73.14.1.01.32-.08.47-.2.31-.29.61-.07.98.15.25.1.52-.02.82-.18.44-.19.96-.36,1.4-.33.84-.12,1.71-.26,2.56-.13.77-.29,1.54-.33,2.33,0,.03.01.08,0,.09-.77.54-.35,1.64-1.1,2.26-.56.46-1.07.62-1.64.12-.11-.1-.26-.22-.42-.29-.14-.06-.12-.17-.14-.28-.02-.11.15-.25-.02-.34-.18-.09-.23.12-.37.18,0-.44.03-.87.03-1.29,0-.42-.18-.87-.4-1.24-.28-.48-.34-1.01-.38-1.51-.04-.59-.05-1.16-.35-1.69-.13-.23-.16-.49-.18-.74-.06-.68-.33-1.3-.57-1.93-.03-.07-.05-.15-.05-.23-.01-.53-.02-1.05-.44-1.47-.11-.11-.14-.39-.09-.55.19-.59-.14-.97-.47-1.36-.23-.27-.31-.61-.18-.88.17-.37.04-.71-.15-.88-.52-.46-.42-1.11-.65-1.65-.23-.55-.07-1.16-.25-1.73-.21-.66-.29-1.36-.81-1.89-.29-.29-.53-.64-.74-.99-.25-.41-.12-.9-.2-1.35-.07-.43-.05-.85-.43-1.2-.33-.31-.41-.75-.23-1.24.15-.4.24-.84-.2-1.2-.25-.2-.24-.52-.15-.81.08-.24.06-.42-.1-.62-.23-.29-.3-.61-.16-.98.13-.34-.22-.64-.14-1.01.02-.1-.04-.26-.04-.41.03-.58-.01-1.11-.29-1.66-.27-.55-.24-1.22-.15-1.84.08-.53-.13-.94-.42-1.33-.1-.14-.29-.24-.28-.43.03-.43-.31-.69-.45-1.03-.18-.42-.59-.84-.5-1.25.13-.63-.02-1.2-.16-1.76-.14-.58.15-1.13.03-1.66-.27-1.15-.44-2.32-.89-3.43-.18-.44-.44-.86-.57-1.27-.22-.69-.55-1.34-.8-2.02-.25-.69-.31-1.29-.27-2,.02-.36-.27-.78-.18-1.23.02-.1-.08-.21-.18-.27-.11-.07-.2-.16-.2-.31.02-.84-.44-1.56-.55-2.37-.05-.33-.17-.59-.56-.67-.21-.04-.39-.21-.58-.33-.32-.22-.63-.37-1.01-.1-.17.12-.42.11-.55,0-.45-.41-.85-.19-1.27.03-.13.07-.27.16-.41.1-.67-.33-1.36-.22-2,.02-.48.17-.9-.08-1.35,0-.39.07-.79.02-1.19.09-.13.02-.3,0-.42-.06-.78-.37-1.45-.09-2.1.33-.1.06-.2.15-.3.11-.56-.18-1.07.11-1.6.14-.15,0-.28.07-.39.16-.58.44-1.22.61-1.92.35-.21-.08-.37-.08-.57.06-.34.24-.73.24-1.11.12-.29-.09-.57-.12-.85,0-.22.09-.42.02-.61-.03-.39-.1-.76-.13-1.17-.05-.41.08-.85-.13-1.3-.13-.53,0-1.05.05-1.6-.03-.36-.05-.82.08-1.23.12-.71.08-1.42-.13-2.12.06-.47.12-.93.32-1.44.06-.13-.07-.38.13-.58.19-.86.24-1.72.55-2.64.35-.18-.04-.32.06-.45.14-.39.25-.77.29-1.17.04-.12-.07-.24-.07-.37-.07-.96,0-1.92-.01-2.82-.45-.19-.09-.39-.03-.5.07-.6.53-1.28.25-1.93.21-.19-.01-.36-.08-.52.1-.13.14-.33.18-.54.15-.23-.03-.45,0-.66.1-.38.18-.76.22-1.13-.04-.06-.04-.17-.07-.22-.04-.54.34-1.14,0-1.69.17-.18.05-.42,0-.61-.07-.29-.1-.55-.11-.81.09-.17.13-.4.12-.55,0-.47-.36-.87-.09-1.21.17-.4.32-.8.31-1.19.12-.44-.21-.95-.17-1.36-.46-.05-.04-.17-.03-.22,0-.82.44-1.68.24-2.53.14-.34-.04-.66-.03-.97.14-.42.22-.9.02-1.36.16-.22.07-.49.01-.75.08-.17.05-.35.01-.51-.21-.21-.29-.62-.18-.89-.06-.35.15-.64.11-.96-.04-.6-.28-1.19-.26-1.8,0-.4.17-.85.14-1.27.1-.3-.03-.39.07-.38.32,0,.62-.22,1.2-.23,1.83,0,.25-.16.5-.28.74-.26.52-.43,1.06-.49,1.63-.11,1.01-.35,2.01-.49,3.01-.02.17-.08.3-.19.42-.8.86-.86,1.98-1.03,3.05-.09.58-.18,1.16-.31,1.73-.05.22-.09.42-.07.65.03.32.02.64-.24.9-.14.14-.13.3-.1.49.07.52.18,1.02.03,1.59-.17.66-.09,1.39-.12,2.09,0,.13.06.29-.05.37-.55.42-.36,1.13-.67,1.65-.38.64-.19,1.38-.29,2.08-.11.73-.24,1.46-.36,2.2-.01.07-.11.14-.05.22.36.56-.01,1.04-.18,1.54-.19.56-.28,1.15-.25,1.73.03.68-.01,1.35-.26,1.99-.09.24-.08.46-.05.7.03.22.01.44-.14.64-.12.16-.25.34-.14.57.02.05.03.15,0,.19-.34.4-.51.85-.6,1.37-.04.23-.18.44-.14.71.04.24-.05.45-.15.68-.2.49-.34,1-.44,1.51-.04.23-.06.49-.23.6-.33.22-.38.52-.41.86-.02.22-.07.43-.16.65-.15.38-.2.76-.02,1.16.13.28.17.59-.07.85-.03.03-.07.1-.06.13.24.69-.24,1.26-.29,1.91-.04.45-.25.88-.32,1.33-.12.71-.63,1.17-1,1.72-.39.6-.22,1.33-.3,2-.02.2,0,.45-.08.61-.35.62-.39,1.35-.76,1.96-.19.31-.29.67-.28,1.06,0,.18.01.38-.13.55-.28.31-.46.64-.4,1.12.04.36-.29.57-.63.69-.17.05-.47-.21-.5.13-.04.49-.34.48-.68.47Z"/>
      <path class="cls-1" d="M171.78,49.67c-.05-1.83,1.59-3.6,3.37-3.53,1.86.07,3.12,1.16,3.2,3.02.09,2.08-1.46,3.65-3.47,3.66-1.73.01-3.09-1.37-3.11-3.16Z"/>
      <path class="cls-1" d="M153.45,49.29c-.04-1.76,1.51-3.29,3.23-3.34,1.55-.04,2.81,1.29,2.75,2.95-.06,1.71-1.39,3.24-3.25,3.28-1.56.04-2.73-1.24-2.73-2.9Z"/>
      <path class="cls-1" d="M21.42,93.89c-.3,1.33-1.24,2.23-2.12,3.17.16-.59.62-1,.93-1.5.15-.25.23-.52.37-.76.1-.16.03-.4.37-.42.12,0,.15-.45.45-.5Z"/>
      <path class="cls-1" d="M70.38,167.4c.34.02.64.02.68-.47.03-.34.33-.07.5-.13-.28.68-.51.8-1.18.6Z"/>
      <path class="cls-1" d="M.59,127.28c-.07.36-.13.72-.47.94-.25-.52.24-.66.47-.94Z"/>
      <path class="cls-1" d="M64.05,123.59c.22.35.26.67-.1.96-.09-.19-.15-.4.05-.54.21-.14-.05-.29.04-.42Z"/>
      <path class="cls-1" d="M64.07,122.73c.14.15-.03.24-.06.36-.14-.15.08-.23.06-.36Z"/>
      <path class="cls-1" d="M69.65,166.9c.13,0,.19.08.19.21-.11-.03-.18-.09-.19-.21Z"/>
      <path class="cls-1" d="M116.15,57.03s.07-.04.1-.06c0,.01.01.03.02.04-.04,0-.08,0-.13.01,0,0,0,0,0,0Z"/>
      <path class="cls-1" d="M68.98,164.48s-.05,0-.07,0c.03-.08.04,0,.06,0,0,0,0,0,0,0Z"/>
      <path class="cls-1" d="M50.84,76.52s.03-.05.05-.08c.03.06.02.09-.05.07h0Z"/>
      <path class="cls-1" d="M186.86,102.08s-.04-.02-.05-.03c0,0,.02,0,.03,0,0,.01.01.02.02.04,0,0,0,0,0,0Z"/>
    </g>
  </g>
</svg>