<?xml version="1.0" encoding="UTF-8"?>
<svg id="Layer_2" data-name="Layer 2" xmlns="http://www.w3.org/2000/svg" viewBox="0 0 186.57 178.82">
  <defs>
    <style>
      .cls-1 {
        stroke-width: 0px;
      }
    </style>
  </defs>
  <g id="Layer_1-2" data-name="Layer 1">
    <g>
      <path class="cls-1" d="M17.29,22.53c.28-.67.48-1.42.8-2.02.31-.59.19-1.44.99-1.81.43-.2.23-.82.51-1.26.52-.82,1.15-1.62,1.47-2.58.18-.53.81-.84.81-1.48,0-.03.34-.13.39-.07.43.47,1.25.42,1.52.97.28.58.16,1.27,0,1.91-.01.05-.11.09-.11.13.04,1.28-.68,2.33-1.04,3.49-.7,2.25-.18,4.55-.36,6.83-.5-.02-.52.3-.53.68,0,.39.11.6.53.59-.02.42.03.81.36,1.12.34.33.22.86.4,1.18.67,1.15.31,2.68,1.54,3.68.34.28.92.87,1.01,1.7.07.63.59,1.47,1.3,1.88.25.15.33.38.6.59.3-.71-.07-1.53.49-2.16.86-.96.54-2.26.87-3.39.17-.58.63-.97.73-1.58.12-.72.54-1.38.55-2.14.8-.05.44-.94.89-1.25.44-.45.65-1.05.99-1.56.83-1.24,2.1-1.9,3.39-2.55.55-.28,1.28-.35,1.55-1.07.09-.23.36-.17.55-.17.41-.01.83,0,1.24,0,.56-.02,1.08.07,1.56-.48.54-.62,1.43-.49,2.17-.36.81.14.87,1.33.11,2.06-.6.58-1.23,1.14-1.87,1.68-.61.53-.98,1.17-.98,1.98,0,.4-.3.73-.51.73-.82.02-.78.53-.74,1.08.02.23-.09.4-.28.51-.6.34-.67,1.01-.96,1.54-.25.46-.56.9-.05,1.42.09.09.05.46-.06.57-.3.3-.24.65-.23,1,0,1.54.26,2.98,1.13,4.32.33.51,0,1.38.7,1.89.29-1.27.84-2.41,1.38-3.56.17-.35.41-.27.64-.32.56-.11,1.08-.24,1.14-.95,0-.1.08-.23.17-.29,1.06-.72,2.05-1.5,3.28-2.03,1.25-.54,2.7-.67,3.79-1.6.15-.13.45-.11.68-.11.83-.02,1.66,0,2.49-.03.23,0,.55.02.67-.12.43-.45.8-.47,1.41-.27.58.19,1.17.14,1.19.96.01.68-.57,1.53-1.26,1.53-1.03,0-1.59.81-2.15,1.33-.53.49-1.01,1.16-1.54,1.74-.32.35-.51.76-1.06.75-.1,0-.28.17-.3.28-.18,1.23-1.29,2.01-1.51,3.21-.06.34-.03.64-.43.86-.27.15-.23.79-.08.89.55.38.14.6-.02.92-.57,1.16-.24,2.51.12,3.47.43,1.16.86,2.44,1.67,3.49.19.24.47.3.65.36.94.31,1.15,1.45,2.09,1.73.15.04.33.23.35.37.26,1.77,2,2.36,2.88,3.63.61.88,1.65,1.18,2.32,1.92.6.66.87,1.48.74,2.39-.04.3-.32.55-.49.57-.98.11-1.81.95-2.87.61,0-.34-.13-.54-.51-.53-.37.02-.75.02-1.12.03-.92,0-1.84,0-2.75-.03-.61-.02-.89.84-1.62.55-.34-.14-.85.18-1.03-.41-.01-.05-.19-.11-.22-.08-.89.78-2.07.8-3.09.92-1.37.15-2.09,1.48-3.41,1.53-.22,0-.29.17-.29.37,0,.25-.05.42-.34.54-.59.25-1.12.59-.94,1.39.02.07-.02.19-.08.24-.9.86-1.33,1.94-1.83,3.08-.54,1.2-.49,2.3-.55,3.46-.06,1.06.58,1.85,1.06,2.72.37.67.72,1.38.84,2.12.08.52.33.77.64,1.11.39.43.63.91,1.21,1.24.79.45,1.75.61,2.41,1.32.11.12.45.08.4.35-.09.51.34.57.6.74.75.5,1.69.78,1.98,1.79.02.07.19.14.3.14.93,0,1.55.61,2.2,1.14.18.15.39.14.59.12,1.19-.09,2.27.38,3.32.78.57.22.91.9,1.42,1.32.78.65,1.64.95,2.59,1.12,0,.71.53.49.92.5.25,0,.52.07.68-.26.23-.47.83-.36.99-.21.62.59,1.42.62,2.15.83,1,.29,1.77.97,2.69,1.4.44.2.59.95,1.3.73.42,0,.85,0,1.27-.01,1.35.22,2.69.49,4.08.39.7-.05,1.22-.46,1.83-.71,1.46-.61,2.57-2.1,4.39-1.8.4.07.74-.22.77-.45.13-.92.91-.9,1.5-1.16.72-.31.88-1.02,1.09-1.64.12-.35.25-.51.59-.48.55.04.81-.15.95-.74.08-.31.19-.98.88-.9.22.03.27-.2.26-.39-.04-.85.41-1.64.09-2.56-.15-.42.05-1.06.01-1.64-.08-1.13-.6-2.18-1.15-2.82-.83-.97-.62-1.9-.73-2.88-.1-.95-.76-1.6-1.28-2.34-1.12-1.61-3.18-2.73-2.81-5.15.1-.66-.58-.97-.72-1.56-.08-.34-.37-.71-.59-1.01-.33-.48-.68-.68-.02-1.18.28-.21-.5-.25-.44-.61.15-.99-.47-1.83-.83-2.58-.44-.93-.33-1.77-.43-2.66-.01-.15-.04-.38.04-.43.96-.6.3-1.19-.08-1.65-.64-.76-.82-1.62-.65-2.53.18-.93-.58-1.53-.67-2.32-.12-1.01-.51-2.05-.01-3.07.25-.51.07-1.05.14-1.57.92-.11.38-.83.52-1.26,0-.92.03-1.84,0-2.76-.02-.69,0-1.35.53-1.87.23-.23.17-.49.18-.74.01-.89-.02-1.78.02-2.67.03-.6-.25-1.27.45-1.76.18-.12.11-.68.06-1.02-.3-2.16.93-3.62,2.26-5.03.41-.44.21-1,.54-1.5.77-1.13,1.26-2.42,1.98-3.61.57-.95,1.35-1.23,2.12-1.69.19-.11.17-.3.26-.43.26-.35.38-.84.99-.84.18,0,.49-.31.53-.52.27-1.36,1.21-2.16,2.3-2.84.05-.03.13-.06.14-.1.12-1.35,1.8-1.82,1.82-3.31,0-.34,1.04-.62,1.55-1.01.83-.63,2.14-.53,2.62-1.62.45-1.02,1.1-1.69,2.25-1.78.72-1.33,2-.73,3.06-.87.17-.02.45.02.46-.16.05-.84.86-.81,1.29-1.21.06-.06.17-.18.18-.17.85.57,1.25-.16,1.81-.57.58-.42,1.37-.31,2-.66.26-.14.64-.04.96-.07.3-.03.68.14.81-.33.02-.06.13-.1.19-.16.49.78.89-.16,1.39-.1.53.06,1.1-.6,1.55-.57,1.03.07,1.79-.62,2.77-.72.91-.1,1.82-.25,2.75-.25.49,0,1.07-.27,1.24-.49.42-.52.87-.41,1.34-.4.74.01,1.35-.55,2.13-.38,1.15.26,2.31-.09,3.47,0,.65.05,1.21-.24,1.66-.69.29-.29.61-.18.91-.19.76-.03,1.44-.19,2.01-.75.22-.21.49-.18.78.04.76.55,1.81.83,2.54.61.92-.28,1.79-.19,2.67-.22.49-.02.95.11,1.49.04.96-.13,1.74-.82,2.77-.71.64.07,1.31-.46,1.99.06.14.1.41.09.61.04,1.14-.27,2.12.31,3.12.66.82.28,1.55.36,2.33,0,.15-.07.38-.15.5-.09.79.38,1.53-.16,2.32-.05.8.11,1.54.53,2.39.39,1.07-.19,2.04.14,3.02.61.71.34,1.48.59,2.29.63.69.03,1.14.67,1.84.73.18.02.33.1.55.05,1.13-.24,2.31-.17,3.26.39,1.02.6,2.01.99,3.17.95.44-.02.77.13.98.46.17.27.32.42.66.47.39.06.57.39.72.78.25.62.58,1.22,1.48.84.24-.1.67-.1.85.05,1.16.92,2.51,1.74,3.34,2.91.68.96,1.48,1.33,2.43,1.69.63.24,1.05.68,1.45,1.26.85,1.24,2.18,2.08,3.07,3.31.52.71.64,1.61,1.03,2.39.21.41.33.72.88.84.72.16,1.01.93,1.15,1.52.15.61.47,1.17.49,1.82.14.43-.44,1.16.51,1.26.47.69.84,1.48,1.09,2.22.29.88.71,1.75.86,2.68.05.3.03.54.4.69.21.08.48.33.45.61-.11,1.02.38,1.94.42,2.93.03.66-.31,1.42.47,1.93.12.08.04.45.06.69.07.81-.18,1.65.31,2.42.11.18.08.46-.13.65-.17.16-.22.41-.07.56.51.53-.02.82-.31.92-.37.12-1,.37-1.06-.44-.02-.27-.19-.34-.42-.35-.27,0-.47-.16-.57-.37-.43-.87-1.12-1.58-1.51-2.5-.34-.81-.7-1.7-1.59-2.18-.55-.3-.88-.89-1.29-1.34-1.03-1.13-2.52-1.72-3.39-3.03-.24-.36-.96-.75-1.24-.74-.99.02-1.44-.83-2.22-1.08-.06-.02-.15,0-.17-.03-.59-1.19-1.7-.72-2.63-.86-.75-.11-1.32-.7-1.99-1.01-.61-.28-1.31-.43-1.4-1.32-.02-.21-.57-.24-.72-.12-.7.58-1.37.06-1.91-.14-.71-.26-1.26-.34-1.84.11-.73.57-1.45.04-2.05-.17-.53-.18-1.3.04-1.66-.69-.06-.12-.57-.12-.83.06-.93.63-2.04.62-3.09,0-.16-.1-.4-.08-.6-.08-.71,0-1.43-.04-2.13,0-.68.05-1.34-.18-2.01.44-.44.41-1.34.46-1.92-.26-.27-.33-2.1-.3-2.4.05-.41.48-.79.32-1.24.1-.3-.15-.65-.67-1-.01-.11.2-.18.02-.3-.07-.53-.41-1.04-.39-1.61.02-.52.38-1.13.73-1.83.61-1.54-.28-2.99.55-4.52.38-.38.72-1.44.19-1.87,1.08-.13.28-.94.87-1.69.69-.42-.1-.86.2-.83.54.02.26.28.74.84.71.79-.05,1.4.49,2.07.73.83.3,1.75.57,2.56.92,1.42.6,3.16.23,4.32,1.24.85.74,1.94.84,2.8,1.6.91.81,2.2,1.34,3.45,1.77.93.32,1.73.98,2.6,1.47.23.13.48.21.46.56-.01.14.04.37.19.36.75-.05,1.13.69,1.64.85,1,.32,1.3,1.25,2.04,1.76.46.32.78.83,1.42.96.98.2,1.34,1.25,2.16,1.7.06.03.07.21.12.22,1.15.2,1.24,1.36,1.86,2.04.02.39-.21.93.53.89.38.18.71.4.72.89,0,.08.03.22.08.24,1.34.41,1.4,1.78,1.89,2.74.38.74.91,1.33,1.45,1.81.55.49.94,1.13,1.57,1.57.35.25.39,1.05.48,1.59.17,1.05.66,1.95,1.09,2.88.56,1.2,1.54,2.2,1.47,3.69-.03.72.57,1.29.9,1.92.4.77.3,1.54.31,2.32,0,.82-.04,1.63.79,2.16.21.14.11.44.11.67,0,1.22,0,2.43,0,3.65,0,.42-.16.9.28,1.24.04.03.07.12.05.16-.51,1.43.44,2.97-.35,4.38-.07.13-.14.23-.27.32-.64.45-.84.98-.37,1.71.25.38.24.94.06,1.29-.53,1.08-.23,2.2-.29,3.29-.04.68-.01,1.36-.02,2.05,0,.67.12,1.36-.73,1.71-.32.13-.38.84-.35.9.49,1.31-.74,2.33-.54,3.57.03.18-.05.35-.26.41-.16.05-.24.15-.23.33.06.78-.04,1.19-.31,1.96-.23.64.18,1.46-.44,1.99-.65.56-.51,1.29-.54,1.99-.03.64-.51,1.22-.83,1.56-.48.53-.7,1.02-.89,1.67-.18.63-.95.88-1.25,1.48-.02.04-.1.04-.16.06-.43.1-1.82-.9-1.84-1.36-.02-.68-.01-1.36,0-2.05,0-.14.03-.37.11-.4.87-.38.26-.77.03-1.16.37-.02.39-.28.39-.56,0-.53-.01-1.06-.02-1.59-.18-1.27.36-2.48.38-3.73,0-.3-.01-.59-.01-.89,0-.77-1.02-1.23-.42-2.3.4-.72,0-1.87.11-2.8.08-.6-.46-.74-.59-1.16-.49-1.55-1.07-3.05-1.28-4.71-.14-1.08-.93-2.08-1.73-2.83-.48-.44-.3-.9-.46-1.32-.35-.87-1.18-1.3-1.6-2.08-.43-.8-1.04-1.47-1.76-2.04-.37-.29-.22-1.04-.72-1.1-.63-.08-1-.52-1.44-.82-.77-.53-1.53-1.14-1.89-2.09-.13-.34-.61-.45-.85-.5-.88-.19-1.22-.86-1.63-1.5-.66-1.03-1.63-1.63-2.8-1.95-.83-.23-1.5-.62-1.9-1.48-.21-.46-.66-.81-1.21-1.11-1.15-.62-2.41-.7-3.58-1.15-1.73-.65-3.48-1.05-5.35-.92-.75.05-1.5-.43-2.05-.81-.57-.39-1.08-.37-1.62-.37-.45,0-1.15-.59-1.3.19-.08.41.73.47,1.15.63.95.35,1.65,1.18,2.7,1.32.04.99,1.49.82,1.5,1.97,0,.76.95.98,1.53,1.34.25.16.42.24.57.52.17.34.3.81.9.81.42,0,.18.5.35.71.86,1.05.97,2.43,1.57,3.57.87,1.64,1.5,3.44,3.02,4.68.6.49.43,2.12-.21,2.71-.53.49-.59.91.07,1.35.55.37.53,1.06.79,1.59.2.4-.24,1.02.43,1.31.09.04-.11.16-.15.24-.31.62-.48,1.17.08,1.84.47.56.45,1.35.35,2.1-.11.78-.51,1.39-.93,2.02-.19.27-.21.71.24.77.63.08.52.5.56.9.09.87-.21,1.75.2,2.62.06.14-.02.89-.51,1.16-.37.21-.32.59-.09.82.6.61.64,1.15,0,1.74-.09.09-.13.27-.13.41,0,1.84-.58,3.64-.38,5.51.1.91-.17,1.76-.78,2.51-.28.34-.24.89-.32,1.31-.38,2.03-1.25,2.87-3.13,2.64-.35-.04-.67-.36-.65-.5.17-.99-.74-1.81-.22-2.96.36-.79.25-1.9-.1-2.91-.44-1.28-1.26-2.46-1.07-3.98.11-.88-.69-1.6-1.36-2.02-.7-.45-.84-1.12-1.03-1.7-.33-1.05-.94-1.65-1.87-2.2-.65-.38-1.15-1.17-1.5-1.89-.55-1.1-1.34-1.84-2.41-2.39-.39-.2-.75-.56-1-.92-.28-.4-.55-.66-1.06-.61-.17.02-.49,0-.47-.13.1-.85-.69-.85-1.08-.97-.95-.29-1.35-1.25-2.29-1.6-.67-.25-1.34-.62-2.03-.65-.69-.03-1.53-.19-1.89-.47-.92-.73-1.85-.28-2.75-.43-.31,0-.61,0-.92.01-.98-.38-1.7.54-2.61.54-.18,0-.27.24-.19.33.53.67.15,1.69,1.14,2.29.99.6,1.42,1.78,1.73,2.98.26,1.02.3,2,.31,3.02,0,.47.55.57.58,1.1.05.87-.58,1.44-.73,2.23-.12.65-.27,1.22.04,1.82.14.28.1.58.13.87.05.46-.2,1.03.44,1.29-.26.38-.71.66-.78,1.15-.09.63-.23,1.29-.25,1.86-.04,1.33-1.11,2.12-1.35,3.29-.19.95-1.12,1.44-1.56,2.27-.15.29-.22.62-.38.91-.61,1.07-1.16,2.18-2.19,2.94-.09.07-.09.27-.15.39-.26.55-.32,1.22-.95,1.55-.15.08-.33.21-.29.41.32,1.35-1.01,2.03-1.27,3.14-.04.16-.13.27-.29.28-.77.07-.93.86-1.21,1.3-.34.52-.75.92-1.21,1.13-.74.35-.97,1.02-1.44,1.52-.51.54-.58,1.52-1.58,1.68-.42.07-.83.47-1.15.81-.98,1.05-2.24,1.86-2.89,3.2-.22.46-.3.98-.99,1.01-.14,0-.45.27-.44.6,0,.17,0,.47-.18.45-.91-.1-.76.76-1.01,1.17-.47.79-1.1,1.17-1.96,1.41-.91.25-1.69.81-2.37,1.48-.1.1-.15.23-.32.27-1.25.25-1.64,1.51-2.5,2.22-.93.77-1.73,1.68-3.01,1.9-.89.15-.73,1.07-1.11,1.59-.44.61-.68,1.31-1.28,1.89-.83.82-2,1.5-2.14,2.87-.02.19-.13.28-.28.4-.52.42-.92.84-1.02,1.62-.08.62-.8,1.07-1.31,1.52-.48.42-.96.68-.49,1.52.23.41-.14,1.16-.28,1.74-.05.21-.34.31-.32.6.08,1.19-.69,2.12-1.02,3.19-.1.33-.25.64-.23.99.03.62.04,1.22-.63,1.56-.16.08-.3.23-.26.43.22,1.05-.43,1.98-.39,3-.27.01-.51.05-.52.42,0,.39.19.5.53.5,0,.47.02.95.02,1.42,0,.48.09.96-.54,1.24-.46.21-.33.76-.37,1.2-.07.88.31,1.85-.36,2.63-.27.32-.5.65-.73.99-.16.23-.22.52-.09.65.47.5.23.91-.02,1.4-.47.9-.63,1.84-.06,2.8.09.16.11.45.02.6-.39.67-.07,1.56-.4,2.08-.5.79-.33,1.59-.54,2.37-.11.41-.5.82-.98.91-.59.12-.98-.33-1.31-.71-.42-.47-.54-1.14-.93-1.65-.23-.3.09-.61.26-.87.21-.33.36-.63-.11-.87-.09-.05-.2-.18-.19-.26.14-.87-.42-1.61-.41-2.46.02-1.75-.56-3.46-.36-5.23,0-.34,0-.69.01-1.03.02-.39-.12-.61-.53-.58-.07-1.1-.1-2.19-.65-3.21-.15-.28,0-.7-.05-1.05-.09-.62.29-1.36-.49-1.83-.12-.07-.04-.45-.06-.68-.02-.26.06-.64-.08-.77-.72-.65-.39-1.54-.63-2.29-.23-.74-.6-1.43-.7-2.22-.03-.2-.2-.46-.21-.72-.02-.54-.31-.87-.74-1.17-1.04-.72-1.51-1.8-1.73-3.01-.04-.22.04-.46-.15-.67-.92-1.02-1.72-2.13-2.42-3.31-.1-.17-.28-.33-.46-.39-1.23-.41-1.73-1.55-2.48-2.44-.74-.87-1.37-1.83-2.24-2.6-.23-.2-.47-.45-.57-.73-.55-1.65-1.84-2.32-3.4-2.64-.31-.06-.33-.24-.4-.48-.2-.76-.78-1.33-1.14-2.02-.26-.49-.9-.64-1.34-.92-.64-.41-.9-1.02-1.35-1.51-.26-.29-.48-.54-.93-.67-.43-.12-.98-.38-1.17-.95-.04-.13-.18-.3-.29-.31-1.4-.17-1.93-1.27-2.6-2.28-.22-.34-.85-.18-1.3-.38-.46-.2-1.03-.38-1.55-.43-.92-.09-1.35-.54-1.31-1.42.04-.89-.71-.85-1.22-1.07-.25-.11-.49-.07-.76-.29-1.52-1.19-2.52-2.9-4.11-4.01-.59-.42-1.38-.72-1.62-1.37-.21-.55-.44-.89-.95-.86-1.29.07-1.53-1.18-2.3-1.68-1.14-.75-1.78-2.08-3.13-2.53-.28-.09-.41-.36-.61-.57-1.18-1.27-2.53-2.29-4.14-3-.65-.29-1.1-1.01-1.64-1.54-.1-.1-.18-.28-.29-.31-1.69-.44-1.82-2.5-3.3-3.15-.21-.09-.14-.38-.12-.57.04-.42-.12-.75-.41-1.03-.15-.15-.28-.26-.32-.5-.14-1.01-.7-1.78-1.45-2.45-.43-.39-.92-.77-1.03-1.41-.03-.19-.11-.28-.28-.4-1.11-.8-1.48-2.03-1.91-3.26-.22-.63-.22-1.32-.75-1.93-.61-.71-.49-1.82-.47-2.78,0-.33.06-.67-.3-.85-.61-.3-.66-.85-.56-1.39.18-1-.05-2.03-.46-2.79-.34-.63-.21-1.54-1.01-1.97-.28-.15-.1-.55-.15-.84,0-.43,0-.85-.01-1.28.02-.49-.57-.69-.54-1.26.03-.56.48-1.07.09-1.73-.11-.19.51-.77.73-1.2.16-.31.52-.57.15-1.04-.16-.21-.14-.67.11-1,.33-.44.33-1.06.14-1.44-.42-.86-.06-1.41.45-2,.1-.12.12-.33.13-.49.03-1.19-.07-2.33.8-3.43.36-.46.64-1.41.47-2.24-.1-.51.08-.94.56-1.17.22-.11.32-.23.32-.46,0-1.35.46-2.48,1.47-3.41.27-.25.58-.67.5-1.16.72,0,.48-.53.51-.91.24-1.18,1.39-1.81,1.74-2.95.14-.46.8-.59,1.13-1.03.62-.83,1.32-1.58,1.67-2.59.11-.32.69-.33,1.04-.48.33-.14.65-.35,1.01-.44.38-.03.93.22.89-.53.74-.63,1.58-1.1,2.4-1.62.63-.39,1.37-.45,1.98-.86.42-.28.37-.72.08-.83-.76-.29-.84-1.04-.96-1.55-.28-1.18-1.22-2.03-1.38-3.23-.04-.31-.35-.27-.51-.44-.3-.31-.48-.72-.31-1.04.48-.94.1-1.6-.47-2.33-.26-.33-.29-1.05.05-1.32.4-.32.32-.41.08-.72-.27-.36-.63-.76-.25-1.28.06-.08.05-.26,0-.35-.71-1.13-.07-2.03.48-2.96.12-.2.06-.52.08-.78.06-.78.29-1.66.21-2.3-.13-1.09.61-1.75.73-2.67.05-.41.44-.78.68-1.17.94-.12.35-.84.51-1.27ZM33.53,53.2c-.29,1.11.25,1.94.93,2.71.53.6,1.36.62,2.03.92.79.35,1.59-.37,2.31-.7,1.47-.66,1.88-3.73.14-5.24-1.2-1.03-2.59-1.07-3.63-.57-.9.44-2.28,1.27-1.79,2.88Z"/>
      <path class="cls-1" d="M161.61,96.57c0,.53.01,1.06.02,1.59,0,.28-.02.54-.39.56-.3-.58-.08-1.2-.13-1.8-.03-.34.27-.32.5-.35Z"/>
      <path class="cls-1" d="M53.05,61.37c.37,0,.75-.01,1.12-.03.38-.02.51.19.51.53-.37,0-.75-.02-1.12,0-.39.03-.51-.16-.51-.51Z"/>
      <path class="cls-1" d="M64.28,165.13c.42-.03.56.19.53.58-.02.34,0,.69-.01,1.03-.41.01-.55-.2-.53-.59.02-.34,0-.68,0-1.03Z"/>
      <path class="cls-1" d="M31.01,27.52c-.45.3-.09,1.19-.89,1.25,0-.63-.25-1.43.89-1.25Z"/>
      <path class="cls-1" d="M17.29,22.53c-.16.43.43,1.15-.51,1.27.13-.44-.43-1.15.51-1.27Z"/>
      <path class="cls-1" d="M182.46,24.14c-.95-.1-.37-.83-.51-1.26.93.11.34.84.51,1.26Z"/>
      <path class="cls-1" d="M22.27,27.88c-.41.02-.53-.2-.53-.59,0-.38.03-.7.53-.68,0,.42,0,.84,0,1.27Z"/>
      <path class="cls-1" d="M73.17,44.24c-.14.43.4,1.15-.52,1.26.14-.43-.4-1.15.52-1.26Z"/>
      <path class="cls-1" d="M.54,80.19c0,.43,0,.85.01,1.28-.42.02-.53-.21-.52-.59,0-.37,0-.71.51-.69Z"/>
      <path class="cls-1" d="M66.44,91.94c-.42,0-.85,0-1.27.01-.02-.5.3-.52.68-.53.38,0,.61.1.59.52Z"/>
      <path class="cls-1" d="M159.51,45.49c-.75.04-.51-.5-.53-.89.69-.01.48.52.53.89Z"/>
      <path class="cls-1" d="M13.9,49.22c.05.75-.51.5-.89.53-.01-.69.51-.49.89-.53Z"/>
      <path class="cls-1" d="M6.43,57.24c-.03.38.21.91-.51.91.02-.39-.21-.91.51-.91Z"/>
      <path class="cls-1" d="M113.57,81.84c.31,0,.61,0,.92-.01,0,.34-.11.53-.5.52-.38,0-.4-.24-.42-.51Z"/>
      <path class="cls-1" d="M57.36,89.45c-.39-.01-.91.21-.92-.5.38.03.91-.21.92.5Z"/>
      <path class="cls-1" d="M71.92,160.51c-.34,0-.54-.12-.53-.5,0-.37.24-.4.52-.42,0,.31,0,.61,0,.92Z"/>
    </g>
  </g>
</svg>